<svg id="Layer_1" data-name="Layer 1" xmlns="http://www.w3.org/2000/svg" viewBox="0 0 275.45 122.26"><defs><style>.cls-1,.cls-2{fill:#71cac8;fill-rule:evenodd;}.cls-2{stroke:#71cac8;stroke-miterlimit:22.93;stroke-width:0.22px;}</style></defs><title>ag2</title><path class="cls-1" d="M10.78,182.59c0.69-.61,15.34-20.81,47.6-18.65a165.58,165.58,0,0,1,24.25,3.55l0.3,5.23c-17-3.78-31.83-7.16-48.73-3.06-10,2.41-18.65,9.29-23,13.18l-0.41-.25h0ZM88.15,168.7c3.38,0.78,3.64.92,7.12,1.75a39.23,39.23,0,0,0-.52,4.94c-1.1-.24-5.48-1.28-6.57-1.52Z" transform="translate(-10.78 -92.49)"/><path class="cls-1" d="M83.52,122.59h0.34c2,0,3.4,1.36,3.45,4.11L87.83,155c0.53,29.15.33,13.24,0.33,29.53s-0.43,24.21-1.31,24.21v0.19H86.53q-1.56-3.45-3-22.47L81.72,155h0l-1-19.19L63.84,157.53,47,178.87l0,0c-9.47,11.93-17.45,21.55-24.22,28.57a4.22,4.22,0,0,1-2.33,1.5v-0.19c0-1.38,3-6.5,9.13-15.27C43.41,173.7,38,180.71,62.2,148.64q8.3-11,19.5-25.58l1.82-.46h0Zm72.06-2.93,0.05,0.06,0.2-.1,2.51-.51q10-1.37,10.22.1t-9.65,3.33q-2.94.49-5.11,0.63,9.36,2.25,13.53,11.92l0.14,1.26-0.14.19H167c-3.68-4.29-6.11-6.56-7.26-6.8a16.08,16.08,0,0,0-8.89-2.57h-1.74q-14.61,0-31.15,17.56Q102.18,164,102.18,181.51v1.12q0,13.6,10.63,18.56a17.46,17.46,0,0,0,6.92,1.44H121q16.21,0,34.49-21.59l2.38-2.67,3.43-.54q-4.08,7.5-13.69,18.19-13.86,12.88-27.58,12.89h-0.8q-14.61,0-21.46-13.86A30.27,30.27,0,0,1,95.24,183v-1.78q0-17.94,15-37.43A84.74,84.74,0,0,1,121,133.13q14.29-10.65,26.61-10.63l1,0,0-.06a45.3,45.3,0,0,1-5.87-2.37q-9-4.56-8.38-5.83t9.86,2.69l2.28,1.17,0.16,0.16,0.07,0,0.47,0.3,0.27,0.13a36.54,36.54,0,0,1,3.59,2.24q1.39-.48,3.61-1l0.29,0Z" transform="translate(-10.78 -92.49)"/><path class="cls-1" d="M178.4,214.75a12.39,12.39,0,0,1-1.83-.12l0.1-1.1c0.49,0,.86,0,1.12,0a4.22,4.22,0,0,0,2.28-.47,1.3,1.3,0,0,0,.62-1.09,1.13,1.13,0,0,0-.27-0.74,1.78,1.78,0,0,0-.86-0.51,5.62,5.62,0,0,0-1.2-.18l0.44-1.5a10.56,10.56,0,0,1-7.74-3.36,11.66,11.66,0,0,1-2.73-8.07,12.15,12.15,0,0,1,1.06-4.81,10,10,0,0,1,2.36-3.54,12.45,12.45,0,0,1,8.63-2.93,17.22,17.22,0,0,1,6.87,1.47,14.73,14.73,0,0,0-.67,2.45l-0.22,0a6.55,6.55,0,0,0-1.25-1.1,8.2,8.2,0,0,0-4.85-1.67,7.91,7.91,0,0,0-6.64,3.06,12.93,12.93,0,0,0-.08,14.17,7.66,7.66,0,0,0,6.48,3,10.14,10.14,0,0,0,6.79-2.59l-0.17,2a11.89,11.89,0,0,1-6.57,1.83l-0.35,1.09a4.05,4.05,0,0,1,2.23.76,1.67,1.67,0,0,1,.57,1.21,2.29,2.29,0,0,1-1,1.79,5,5,0,0,1-3.12.79h0Zm11.05-6V186.86l1.41,0.1,1.4-.1v21.87l-1.4-.1-1.41.1h0Zm1.41-24.29a1.42,1.42,0,0,1-1-.45,1.43,1.43,0,0,1-.45-1,1.41,1.41,0,0,1,.44-1,1.46,1.46,0,1,1,2.07,2.07,1.37,1.37,0,0,1-1,.45h0Zm13.69,30.31a12.41,12.41,0,0,1-1.83-.12l0.1-1.1c0.49,0,.86,0,1.12,0a4.22,4.22,0,0,0,2.28-.47,1.3,1.3,0,0,0,.62-1.09,1.13,1.13,0,0,0-.27-0.74,1.78,1.78,0,0,0-.86-0.51,5.61,5.61,0,0,0-1.2-.18l0.44-1.5a10.56,10.56,0,0,1-7.74-3.36,11.66,11.66,0,0,1-2.73-8.07,12.16,12.16,0,0,1,1.06-4.81,10,10,0,0,1,2.36-3.54,12.46,12.46,0,0,1,8.63-2.93,17.23,17.23,0,0,1,6.87,1.47,14.59,14.59,0,0,0-.67,2.45l-0.22,0a6.6,6.6,0,0,0-1.25-1.1,8.2,8.2,0,0,0-4.85-1.67,7.92,7.92,0,0,0-6.64,3.06,12.93,12.93,0,0,0-.07,14.17,7.66,7.66,0,0,0,6.48,3,10.14,10.14,0,0,0,6.79-2.59l-0.17,2a11.89,11.89,0,0,1-6.57,1.83l-0.35,1.09a4.05,4.05,0,0,1,2.23.76,1.68,1.68,0,0,1,.57,1.21,2.29,2.29,0,0,1-1,1.79,5,5,0,0,1-3.12.79h0ZM224.11,208a7.61,7.61,0,0,0,6.53-3,11.69,11.69,0,0,0,2-7.12c-1.27,0-2.4,0-3.41,0l-6.76-.14h-0.26l-4.36.06-0.89,0v0.44a12.67,12.67,0,0,0,1.53,6.37,6.18,6.18,0,0,0,5.65,3.4h0Zm-10.22-11.81,2.82,0,2.81,0,4.63,0.09h2.67l5.71-.15a10.62,10.62,0,0,0-2.09-5.53,7.93,7.93,0,0,0-6.62-3.06,8.21,8.21,0,0,0-4.85,1.67,6.55,6.55,0,0,0-1.25,1.1l-0.22,0a15.58,15.58,0,0,0-.67-2.45,17.14,17.14,0,0,1,6.87-1.47,12.49,12.49,0,0,1,8.63,2.94,10.6,10.6,0,0,1,3.42,8.35,11.49,11.49,0,0,1-3,8.35q-3,3.08-8.49,3.07h-0.12a9.47,9.47,0,0,1-7.59-3.28,12,12,0,0,1-2.73-8,14.41,14.41,0,0,1,.1-1.67h0Zm32.45,2.72c0.39-.83.75-1.5,1.06-2l4.25-6.84a34.5,34.5,0,0,1,2.26-3.2l-1.25.1-1.24-.1-1.76,3.26a65.18,65.18,0,0,1-4.35,7.45,116.79,116.79,0,0,1-6.07-10.71l-1.75.1-1.8-.1,7.84,12.66v9.21l1.41-.1,1.4,0.1v-9.82h0Zm9.26,9.82V186.86L257,187l1.4-.1v21.87l-1.4-.1-1.41.1h0ZM257,184.44a1.47,1.47,0,0,1-1-2.52A1.46,1.46,0,1,1,258,184a1.38,1.38,0,0,1-1,.45h0Zm26,2.42h0.67l0.84,7.81q0.7,6.51,1.75,14.06l-1.5-.1-1.5.1q-0.46-5.62-1.06-11.86c-0.13-1.43-.32-3-0.58-4.64l-3.39,6.15q-3,5.35-5,10h-0.36l-1.75-3.62q-1.67-3.46-4.26-8.36l-2.2-4.17-1,8.26a67,67,0,0,0-.53,8.24l-1.12-.1-1.16.1q1.28-7.81,1.73-10.93,0.89-6.14,1.34-10.94h0.83l2.71,5.34q3.11,6.12,6.34,11.41Z" transform="translate(-10.78 -92.49)"/><path class="cls-1" d="M134.28,180.13c31.18-.4,55.21-13.27,71.65-40.44a81.18,81.18,0,0,0,10.62-26.75c0.4-2.16.71-4.33,0.95-6.5h0.24c-0.23,2.08-.53,4.28-0.92,6.56a88.31,88.31,0,0,1-9.41,26.88c-11.27,20.89-31.17,38.57-54.94,43a129.16,129.16,0,0,1-25.76,1.91Z" transform="translate(-10.78 -92.49)"/><path class="cls-1" d="M205.9,146.31c3.49-2.18,3.36-2.47,4.14-6.85A9.55,9.55,0,0,1,211.1,137c0.64-1.3,1.37-2.54,2.13-3.76q0.83-1.56,1.57-.72a15.83,15.83,0,0,0,3.89-2.76q0.54-.45.92,0.41c0.9-.09,2.31-1.07,3.57-1.79,0.52-.31.83,0.13,1.25,0.54,1.29-.5,2.75-1.07,4.16-1.51,0.55,0,.33.61,0.72,0.87,1.42-.12,3.3-0.4,4.72-0.67,0.72,0,.64.52,1,1.13,0.7,1.19,2.6.64,3.66,0.7s1.27,0.44,1.17.87,0.05,0.47.51,0.75c1.76,1.1,4,1.52,5.49,3-0.46,1.78-2.08,2.91-3.43,4.18a1,1,0,0,0,.29.92,10,10,0,0,1-4.38,3.81,2.07,2.07,0,0,0,.43,1.17,10.3,10.3,0,0,1-3.43,1.75,0.76,0.76,0,0,0,.1.75c-0.55,1-2,1.38-3.6,1.65a0.9,0.9,0,0,0,.28.83,8.08,8.08,0,0,1-4,1c-0.07.27,0,.63,0,0.9a23.08,23.08,0,0,1-4.55.07l0.05,0.72a8.74,8.74,0,0,1-4-1c-1.75,0-3.22-1.5-4.71-2.92a13.35,13.35,0,0,0-3.86-2.78,1.89,1.89,0,0,0-1.91-.11l-2.91,1.76Z" transform="translate(-10.78 -92.49)"/><path class="cls-1" d="M205.9,146.32c7.07-5,22.81-8.57,39.8-11.93l0,0.06c-13.74,3.19-28,5.52-39.52,12.29Z" transform="translate(-10.78 -92.49)"/><path class="cls-1" d="M209.29,144.58c0.47-1,.91-2,1.35-3,1.64-3.71,3.28-7.41,6.88-10.67l0.05,0.06c-3.58,3.24-5.22,6.94-6.86,10.64-0.44,1-.88,2-1.35,3Z" transform="translate(-10.78 -92.49)"/><path class="cls-1" d="M222.25,130c-1.77.51-3.54,2.15-5.31,4.55a63.1,63.1,0,0,0-5.32,9.16l-0.07,0a63.25,63.25,0,0,1,5.33-9.17c1.78-2.41,3.56-4.06,5.35-4.58Z" transform="translate(-10.78 -92.49)"/><path class="cls-1" d="M227.8,128.14a20.26,20.26,0,0,0-6.75,5.41,45.24,45.24,0,0,0-5.44,8.4l-0.07,0A45.34,45.34,0,0,1,221,133.5a20.34,20.34,0,0,1,6.78-5.43Z" transform="translate(-10.78 -92.49)"/><path class="cls-1" d="M232.8,128.44a15.44,15.44,0,0,0-7.8,4.32,24.67,24.67,0,0,0-4.93,7.79l-0.07,0a24.74,24.74,0,0,1,5-7.82,15.52,15.52,0,0,1,7.83-4.34Z" transform="translate(-10.78 -92.49)"/><path class="cls-1" d="M238.55,130.08a15.08,15.08,0,0,0-8.77,2.75,15.68,15.68,0,0,0-4.79,6.33l-0.07,0a15.75,15.75,0,0,1,4.81-6.36,15.16,15.16,0,0,1,8.81-2.77v0.08Z" transform="translate(-10.78 -92.49)"/><path class="cls-1" d="M212,143.2c0.93,0.56,1.84,1.15,2.74,1.75,3.39,2.21,6.78,4.42,11.55,5.19v0.08c-4.79-.77-8.18-3-11.58-5.2-0.91-.59-1.81-1.18-2.74-1.74Z" transform="translate(-10.78 -92.49)"/><path class="cls-1" d="M231.38,148.74c-1.8.46-4.17,0-6.94-1.22a63.35,63.35,0,0,1-9.25-5.18l0-.06a63.23,63.23,0,0,0,9.24,5.17c2.75,1.17,5.1,1.67,6.89,1.22Z" transform="translate(-10.78 -92.49)"/><path class="cls-1" d="M234.33,147.38c-1.8.46-4.17,0-6.94-1.22a63.27,63.27,0,0,1-9.25-5.18l0-.07a63.11,63.11,0,0,0,9.24,5.17c2.75,1.17,5.1,1.67,6.89,1.22Z" transform="translate(-10.78 -92.49)"/><path class="cls-1" d="M236.44,144.24c-1.56.6-3.52,0.33-5.75-.54a39.92,39.92,0,0,1-7.35-4.09l0-.06a39.79,39.79,0,0,0,7.34,4.09c2.21,0.86,4.15,1.13,5.7.54Z" transform="translate(-10.78 -92.49)"/><path class="cls-1" d="M237.4,142a6.21,6.21,0,0,1-4.92-.06,26.58,26.58,0,0,1-6-3.33l0-.06a26.53,26.53,0,0,0,6,3.32,6.15,6.15,0,0,0,4.86.07Z" transform="translate(-10.78 -92.49)"/><path class="cls-1" d="M241.05,138.69a4.26,4.26,0,0,1-3.77.6,12.74,12.74,0,0,1-4.16-2.28l0-.06a12.64,12.64,0,0,0,4.14,2.26,4.19,4.19,0,0,0,3.7-.59Z" transform="translate(-10.78 -92.49)"/><path class="cls-1" d="M207.28,143.88c0.17,2.81,0,2.85-2.18,5a6.55,6.55,0,0,0-1,1.56c-0.47.87-.87,1.77-1.25,2.68q-0.54,1.08.22,1.16a10.77,10.77,0,0,1,0,3.26q0,0.48.59,0.35a9.13,9.13,0,0,1,.42,2.69c0,0.41.4,0.42,0.8,0.48,0.23,0.92.49,2,.81,2.91,0.21,0.32.47-.06,0.77,0.05,0.5,0.84,1.08,2,1.5,2.89,0.3,0.39.54,0.15,1,.09,0.94-.08,1.38,1.19,1.83,1.76s0.75,0.53.95,0.31,0.28-.15.62,0c1.31,0.54,2.41,1.6,3.87,1.85,0.81-1,.8-2.31,1-3.56a0.67,0.67,0,0,1,.62-0.2,6.79,6.79,0,0,0,.39-3.95,1.41,1.41,0,0,1,.82-0.22,7,7,0,0,0-.38-2.6,0.52,0.52,0,0,1,.45-0.24c0.35-.71,0-1.67-0.51-2.66a0.61,0.61,0,0,1,.57-0.17,5.53,5.53,0,0,0-1-2.62c0.12-.15.36-0.24,0.48-0.38a15.88,15.88,0,0,0-1.76-2.56l0.42-.26a6,6,0,0,0-2.17-1.84c-0.69-1-2.11-1.2-3.49-1.47a9.12,9.12,0,0,1-3.07-1.05,1.29,1.29,0,0,1-.81-1l-0.17-2.32Z" transform="translate(-10.78 -92.49)"/><path class="cls-1" d="M207.31,143.91c0.16,2.64,0,2.83-1.85,4.67l-0.34.35a4.51,4.51,0,0,0-.75,1.17l-0.19.38c-0.23.43-.45,0.88-0.66,1.32s-0.4.9-.59,1.35h0a1.42,1.42,0,0,0-.21.81,0.39,0.39,0,0,0,.4.31h0v0a8.8,8.8,0,0,1,.12,1.65,14.66,14.66,0,0,1-.12,1.61h0a0.29,0.29,0,0,0,.12.29,0.64,0.64,0,0,0,.44,0h0v0a5.69,5.69,0,0,1,.36,2c0,0.24,0,.48.06,0.71h0c0,0.34.31,0.38,0.63,0.43l0.14,0h0v0l0,0.11c0.22,0.89.48,1.88,0.78,2.8a0.26,0.26,0,0,0,.37.07,0.54,0.54,0,0,1,.39,0h0c0.23,0.4.49,0.86,0.74,1.34s0.54,1.08.76,1.55a0.49,0.49,0,0,0,.64.15A2.48,2.48,0,0,1,209,167h0a1.89,1.89,0,0,1,1.53,1.26,5.53,5.53,0,0,0,.33.51,1.34,1.34,0,0,0,.56.42h0a0.32,0.32,0,0,0,.34-0.11,0.33,0.33,0,0,1,.51-0.09l0.15,0.07a11.2,11.2,0,0,1,1.46.78,7.11,7.11,0,0,0,2.38,1.06,5.13,5.13,0,0,0,.87-2.82c0-.24.05-0.47,0.09-0.71h0a0.75,0.75,0,0,1,.32-0.2,0.58,0.58,0,0,1,.31,0,5.51,5.51,0,0,0,.45-1.64,8.9,8.9,0,0,0-.07-2.26v0h0A1.23,1.23,0,0,1,219,163h0.07a6,6,0,0,0-.07-1.28,8.48,8.48,0,0,0-.31-1.28v0h0l0.08-.07a0.44,0.44,0,0,1,.37-0.18,1.76,1.76,0,0,0,0-1.18,7.57,7.57,0,0,0-.56-1.43v0l0,0a0.79,0.79,0,0,1,.31-0.17,0.52,0.52,0,0,1,.25,0,4.78,4.78,0,0,0-.31-1.26,6.21,6.21,0,0,0-.7-1.29v0l0,0a1,1,0,0,1,.25-0.2,1.15,1.15,0,0,0,.22-0.17,14.76,14.76,0,0,0-1.62-2.37l-0.13-.17,0,0,0,0,0.39-.24a5,5,0,0,0-.92-1,7.17,7.17,0,0,0-1.23-.81h0c-0.64-.91-1.94-1.16-3.24-1.41l-0.23,0a9.81,9.81,0,0,1-1.68-.42,8.77,8.77,0,0,1-1.4-.63,1.76,1.76,0,0,1-.56-0.41,1.15,1.15,0,0,1-.27-0.63h0l-0.17-2.28-0.3,0h0Zm-1.89,4.62c1.8-1.83,2-2,1.83-4.65h0v0l0.37-.06h0v0l0.17,2.31a1.08,1.08,0,0,0,.26.6,1.68,1.68,0,0,0,.54.4h0a8.71,8.71,0,0,0,1.39.63,9.69,9.69,0,0,0,1.67.42h0l0.23,0c1.31,0.25,2.61.5,3.27,1.43a7.27,7.27,0,0,1,1.23.82,5.12,5.12,0,0,1,.95,1l0,0,0,0-0.39.24,0.11,0.14a14.52,14.52,0,0,1,1.63,2.4v0a1,1,0,0,1-.25.2,1.12,1.12,0,0,0-.22.17A6.24,6.24,0,0,1,219,156a4.79,4.79,0,0,1,.32,1.32v0.06l-0.05,0a0.39,0.39,0,0,0-.26,0,0.71,0.71,0,0,0-.26.14,7.5,7.5,0,0,1,.56,1.42,1.8,1.8,0,0,1-.06,1.25v0h0a0.37,0.37,0,0,0-.34.16l-0.07.06a8.43,8.43,0,0,1,.31,1.27,6,6,0,0,1,.07,1.33v0H219a1.21,1.21,0,0,0-.69.2,8.94,8.94,0,0,1,.06,2.26,5.54,5.54,0,0,1-.46,1.69v0h0a0.49,0.49,0,0,0-.3,0,0.67,0.67,0,0,0-.28.17c0,0.23-.06.46-0.08,0.7a5.16,5.16,0,0,1-.9,2.87h0a7.11,7.11,0,0,1-2.43-1.07,11.11,11.11,0,0,0-1.45-.78l-0.16-.07a0.28,0.28,0,0,0-.43.07,0.38,0.38,0,0,1-.4.13h0a1.4,1.4,0,0,1-.6-0.44h0a5.34,5.34,0,0,1-.34-0.52,1.85,1.85,0,0,0-1.46-1.23,2.37,2.37,0,0,0-.34.07A0.54,0.54,0,0,1,208,167h0c-0.22-.47-0.48-1-0.76-1.55s-0.5-.94-0.73-1.33a0.51,0.51,0,0,0-.33,0,0.31,0.31,0,0,1-.44-0.1h0c-0.3-.92-0.55-1.92-0.78-2.81l0-.09-0.12,0c-0.35-.06-0.65-0.1-0.69-0.49h0c0-.23,0-0.47-0.06-0.71a5.87,5.87,0,0,0-.34-2,0.68,0.68,0,0,1-.46,0,0.35,0.35,0,0,1-.15-0.36h0a14.58,14.58,0,0,0,.12-1.61,8.68,8.68,0,0,0-.12-1.62,0.45,0.45,0,0,1-.44-0.36,1.48,1.48,0,0,1,.22-0.85h0c0.19-.45.39-0.91,0.59-1.36s0.43-.89.66-1.33l0.19-.38a4.58,4.58,0,0,1,.76-1.19Z" transform="translate(-10.78 -92.49)"/><path class="cls-1" d="M207.28,143.87c0,5.91,4.25,16.1,9.1,26.9l0,0c-3.65-8.92-8-17.79-8.79-26.88Z" transform="translate(-10.78 -92.49)"/><path class="cls-1" d="M198.24,144.75c0.22-5.27.62-5.31,5-9a12.3,12.3,0,0,0,2.07-2.73c1-1.53,2-3.14,2.85-4.77q1.21-1.91-.19-2.21a20.25,20.25,0,0,1,.61-6.08q0.15-.89-1-0.77c-0.47-1.06-.26-3.26-0.27-5.11,0-.77-0.67-0.85-1.4-1.05-0.26-1.75-.55-3.75-1-5.59-0.32-.63-0.89,0-1.43-0.25-0.77-1.65-1.64-3.93-2.25-5.69-0.48-.79-1-0.39-1.88-0.37-1.77,0-2.36-2.49-3.09-3.64s-1.3-1.14-1.71-.76-0.56.23-1.17-.1c-2.34-1.27-4.2-3.44-6.87-4.19-1.69,1.65-1.93,4.16-2.49,6.47a1.25,1.25,0,0,1-1.2.26,12.75,12.75,0,0,0-1.48,7.29,2.64,2.64,0,0,1-1.58.26,13.2,13.2,0,0,0,.22,4.93,1,1,0,0,1-.89.37c-0.79,1.26-.27,3.12.44,5.06a1.14,1.14,0,0,1-1.1.21,10.38,10.38,0,0,0,1.41,5.08c-0.25.25-.72,0.37-1,0.62a29.58,29.58,0,0,0,2.81,5.12l-0.84.4a11.21,11.21,0,0,0,3.71,3.85c1.1,2,3.71,2.64,6.23,3.4a17.09,17.09,0,0,1,5.54,2.54,2.43,2.43,0,0,1,1.33,2.06q-0.06,2.18-.11,4.36Z" transform="translate(-10.78 -92.49)"/><path class="cls-1" d="M198.23,144.76c1.09-11-4.9-30.86-11.9-51.94l-0.06.06c5.14,17.34,11.58,34.74,11.32,51.85Z" transform="translate(-10.78 -92.49)"/><path class="cls-1" d="M197.95,139.83c0.79-1.15,1.62-2.27,2.44-3.38,3.09-4.17,6.18-8.34,7.52-14.39l0.08,0c-1.35,6.07-4.44,10.24-7.54,14.42-0.82,1.11-1.65,2.23-2.44,3.38Z" transform="translate(-10.78 -92.49)"/><path class="cls-1" d="M206.12,116.19c0.55,2.32-.16,5.35-1.72,8.86a81.06,81.06,0,0,1-6.85,11.75l-0.06,0A80.88,80.88,0,0,0,204.33,125c1.56-3.5,2.26-6.51,1.72-8.81Z" transform="translate(-10.78 -92.49)"/><path class="cls-1" d="M204.72,108.82a26.08,26.08,0,0,1-1.76,11,58.18,58.18,0,0,1-5.92,11.4l-0.06,0a58.08,58.08,0,0,0,5.92-11.39,26,26,0,0,0,1.76-11h0.08Z" transform="translate(-10.78 -92.49)"/><path class="cls-1" d="M201.21,103.41a19.91,19.91,0,0,1,.12,11.48,31.71,31.71,0,0,1-5.58,10.47l-0.06,0a31.66,31.66,0,0,0,5.57-10.44,19.83,19.83,0,0,0-.12-11.43Z" transform="translate(-10.78 -92.49)"/><path class="cls-2" d="M195.74,98c2.26,4.33,2.92,8.13,2.49,11.57a20.18,20.18,0,0,1-4,9.39l-0.06,0a20.11,20.11,0,0,0,4-9.35c0.43-3.42-.23-7.21-2.48-11.52Z" transform="translate(-10.78 -92.49)"/><path class="cls-1" d="M197.83,136.11c-1.22-.68-2.45-1.32-3.68-2-4.62-2.38-9.24-4.76-13.13-9.61l0.06,0c3.88,4.83,8.49,7.21,13.1,9.59,1.23,0.64,2.47,1.27,3.68,2Z" transform="translate(-10.78 -92.49)"/><path class="cls-1" d="M179.48,117.85c0.62,2.28,2.68,4.59,5.72,6.91a81,81,0,0,0,11.62,7l0,0.07a81.23,81.23,0,0,1-11.63-7c-3.05-2.34-5.12-4.66-5.75-7Z" transform="translate(-10.78 -92.49)"/><path class="cls-1" d="M179.13,113.71c0.62,2.28,2.68,4.59,5.72,6.91a81.05,81.05,0,0,0,11.62,7l0,0.07a81.07,81.07,0,0,1-11.63-7c-3.05-2.34-5.12-4.66-5.75-7Z" transform="translate(-10.78 -92.49)"/><path class="cls-1" d="M181.29,109.38c0.32,2.1,1.85,4.09,4.22,6a51,51,0,0,0,9.2,5.59l0,0.07a51.09,51.09,0,0,1-9.22-5.6c-2.38-1.93-3.92-3.94-4.24-6.06h0.08Z" transform="translate(-10.78 -92.49)"/><path class="cls-1" d="M183.13,106.92c0.1,2,1.27,3.74,3.15,5.38a34,34,0,0,0,7.5,4.58l0,0.07a34,34,0,0,1-7.51-4.59c-1.9-1.65-3.07-3.44-3.18-5.43h0.08Z" transform="translate(-10.78 -92.49)"/><path class="cls-1" d="M184.56,100.74a5.38,5.38,0,0,0,1.69,4.51,16.23,16.23,0,0,0,5.15,3.18l0,0.07a16.35,16.35,0,0,1-5.17-3.2,5.46,5.46,0,0,1-1.71-4.57h0.08Z" transform="translate(-10.78 -92.49)"/><path class="cls-1" d="M200.07,141.68c-3.24,1.59-3.15,1.86-4.22,5.61a8.36,8.36,0,0,1-1.14,2c-0.67,1.07-1.42,2.09-2.19,3.09q-0.86,1.28-1.43.49a13.82,13.82,0,0,0-3.63,2.06q-0.51.34-.77-0.44a11.64,11.64,0,0,0-3.27,1.24c-0.48.22-.72-0.18-1-0.58-1.17.32-2.5,0.69-3.76,0.95-0.49,0-.23-0.56-0.55-0.82-1.25,0-2.91.06-4.18,0.16-0.63-.08-0.51-0.51-0.75-1.08-0.51-1.1-2.21-.79-3.13-0.93s-1.07-.5-0.95-0.86,0-.41-0.38-0.7c-1.44-1.12-3.31-1.68-4.52-3.14,0.56-1.51,2.07-2.35,3.36-3.34a0.86,0.86,0,0,0-.17-0.83,8.73,8.73,0,0,1,4.15-2.94,1.81,1.81,0,0,0-.27-1.06,9,9,0,0,1,3.14-1.22,0.66,0.66,0,0,0,0-.66c0.57-.84,1.87-1,3.29-1.12a0.78,0.78,0,0,0-.17-0.75,7.09,7.09,0,0,1,3.56-.52c0.09-.23,0-0.55.12-0.78a20.2,20.2,0,0,1,4,.34c0-.21,0-0.42,0-0.64a7.65,7.65,0,0,1,3.43,1.26c1.53,0.14,2.68,1.59,3.85,3a11.69,11.69,0,0,0,3.12,2.76,1.66,1.66,0,0,0,1.66.26l2.69-1.27Z" transform="translate(-10.78 -92.49)"/><path class="cls-1" d="M200.08,141.67c-6.6,3.73-20.65,5.45-35.75,6.89l0-.05c12.26-1.57,24.91-2.34,35.54-7.23Z" transform="translate(-10.78 -92.49)"/><path class="cls-1" d="M197,142.88c-0.5.81-1,1.64-1.44,2.46-1.76,3.09-3.52,6.17-6.94,8.69l0-.05c3.41-2.51,5.17-5.59,6.92-8.67,0.47-.82.94-1.65,1.44-2.46Z" transform="translate(-10.78 -92.49)"/><path class="cls-1" d="M184.38,154.43c1.59-.29,3.27-1.56,5-3.5a55.29,55.29,0,0,0,5.45-7.51l0.06,0a55.37,55.37,0,0,1-5.45,7.52c-1.77,1.95-3.46,3.23-5.07,3.52v-0.07Z" transform="translate(-10.78 -92.49)"/><path class="cls-1" d="M179.38,155.59a17.77,17.77,0,0,0,6.36-4.12,39.72,39.72,0,0,0,5.49-6.84l0.06,0a39.79,39.79,0,0,1-5.5,6.85,17.83,17.83,0,0,1-6.39,4.14Z" transform="translate(-10.78 -92.49)"/><path class="cls-1" d="M175,154.88a13.54,13.54,0,0,0,7.18-3.08,21.64,21.64,0,0,0,5-6.36l0.06,0a21.69,21.69,0,0,1-5,6.38,13.61,13.61,0,0,1-7.21,3.09v-0.07Z" transform="translate(-10.78 -92.49)"/><path class="cls-1" d="M170.18,152.94a13.22,13.22,0,0,0,7.89-1.62,13.75,13.75,0,0,0,4.73-5.1l0.06,0a13.81,13.81,0,0,1-4.76,5.12,13.29,13.29,0,0,1-7.92,1.63v-0.07Z" transform="translate(-10.78 -92.49)"/><path class="cls-1" d="M194.52,143.85c-0.76-.57-1.5-1.17-2.24-1.76-2.76-2.23-5.52-4.46-9.61-5.55l0-.06c4.1,1.09,6.87,3.33,9.63,5.56,0.74,0.6,1.47,1.19,2.24,1.76Z" transform="translate(-10.78 -92.49)"/><path class="cls-1" d="M178.07,137.31c1.61-.24,3.63.41,5.94,1.68a55.44,55.44,0,0,1,7.61,5.33l0,0.05A55.4,55.4,0,0,0,184,139c-2.29-1.26-4.3-1.91-5.9-1.67v-0.07Z" transform="translate(-10.78 -92.49)"/><path class="cls-1" d="M175.38,138.24c1.61-.24,3.63.41,5.94,1.68a55.55,55.55,0,0,1,7.61,5.33l0,0.05a55.47,55.47,0,0,0-7.6-5.33c-2.29-1.26-4.3-1.91-5.9-1.67v-0.07Z" transform="translate(-10.78 -92.49)"/><path class="cls-1" d="M173.27,140.79c1.42-.38,3.1,0,5,1a34.93,34.93,0,0,1,6,4.22l0,0.05a34.83,34.83,0,0,0-6-4.21c-1.85-.95-3.52-1.35-4.92-1Z" transform="translate(-10.78 -92.49)"/><path class="cls-1" d="M172.23,142.62a5.44,5.44,0,0,1,4.28.49,23.27,23.27,0,0,1,4.95,3.43l0,0.05a23.19,23.19,0,0,0-4.93-3.42,5.38,5.38,0,0,0-4.23-.49Z" transform="translate(-10.78 -92.49)"/><path class="cls-1" d="M168.76,145.21a3.73,3.73,0,0,1,3.33-.19,11.15,11.15,0,0,1,3.43,2.35l0,0a11.11,11.11,0,0,0-3.41-2.34,3.67,3.67,0,0,0-3.28.19Z" transform="translate(-10.78 -92.49)"/><path class="cls-1" d="M211.95,165.71a1,1,0,1,1-1,1,1,1,0,0,1,1-1h0Zm-0.38,1.51h0.14v-0.45h0.23l0.06,0,0.07,0.07,0.1,0.14,0.14,0.21h0.17l-0.18-.28a0.75,0.75,0,0,0-.11-0.13l-0.08,0a0.36,0.36,0,0,0,.22-0.1,0.25,0.25,0,0,0,.07-0.18,0.3,0.3,0,0,0,0-.15,0.23,0.23,0,0,0-.12-0.09,0.58,0.58,0,0,0-.21,0h-0.45v1h0Zm0.13-.57H212l0.14,0a0.17,0.17,0,0,0,.08-0.06,0.16,0.16,0,0,0,0-.09,0.15,0.15,0,0,0-.05-0.12,0.25,0.25,0,0,0-.17,0H211.7v0.34h0Zm0.25-.81a0.87,0.87,0,1,0,.88.86A0.87,0.87,0,0,0,212,165.83Z" transform="translate(-10.78 -92.49)"/></svg>